# xmcd
#
# Track frame offsets: 
#        150
#        20057
#        34127
#        60919
#        73929
#        95369
#        113345
#        143608
#        156478
#        171212
#        192029
#        204379
#        226709
#        242309
#        261140
#        282054
#
# Disc length: 3998 seconds
#
# Revision: 0
# Processed by: cddbd v1.5.2PL0 Copyright (c) Steve Scherf et al.
# Submitted via: ExactAudioCopy v1.3
#
DISCID=cc0f9c10
DTITLE=Tommy McCoy - 25 Year Retrospect - CD2
DYEAR=2015
DGENRE=Blues
TTITLE0=Spanish Moon
TTITLE1=Poverty
TTITLE2=Angels On My Shoulder, Devil On My Back
TTITLE3=Black Eldorado Red
TTITLE4=Lay My Demons Down
TTITLE5=Late In The Lonely Night
TTITLE6=Money
TTITLE7=Broke, You're A Joke
TTITLE8=Sugar Cane
TTITLE9=Language Of Love
TTITLE10=My Guitar Play Nothin' But The Blues
TTITLE11=Jive Dive
TTITLE12=Cars, Bars And Guitars
TTITLE13=Space Master
TTITLE14=Hey Now
TTITLE15=Blue Water Runs Deep
EXTD=
EXTT0=
EXTT1=
EXTT2=
EXTT3=
EXTT4=
EXTT5=
EXTT6=
EXTT7=
EXTT8=
EXTT9=
EXTT10=
EXTT11=
EXTT12=
EXTT13=
EXTT14=
EXTT15=
PLAYORDER=
